<?xml version="1.0" encoding="UTF-8"?>
<svg xmlns="http://www.w3.org/2000/svg" xmlns:xlink="http://www.w3.org/1999/xlink" width="5434" height="3442" viewBox="0 0 5434 3442">
<path fill-rule="nonzero" fill="rgb(100%, 100%, 100%)" fill-opacity="1" d="M 0.078125 0 L 5433.839844 0 C 5433.878906 0 5433.921875 0.0390625 5433.921875 0.078125 L 5433.921875 3441.402344 C 5433.921875 3441.445312 5433.878906 3441.480469 5433.839844 3441.480469 L 0.078125 3441.480469 C 0.0351562 3441.480469 0 3441.445312 0 3441.402344 L 0 0.078125 C 0 0.0390625 0.0351562 0 0.078125 0 Z M 0.078125 0 "/>
<path fill-rule="nonzero" fill="rgb(0%, 63.476562%, 21.972656%)" fill-opacity="1" d="M 3580.398438 720.058594 C 3309.089844 894.179688 3080.410156 1152.570312 2918.148438 1466.308594 C 2869.609375 1387.878906 2815.699219 1312.910156 2756.589844 1242.160156 C 2978.46875 991.519531 3262.109375 807.519531 3580.398438 720.058594 Z M 2693.058594 2280.039062 L 2283.308594 2280.039062 C 2318.878906 2031.75 2397.71875 1799.28125 2511.039062 1592.269531 C 2576.800781 1736.769531 2626.820312 1887.941406 2661.398438 2042.640625 C 2672.160156 2090.769531 2695.851562 2242.71875 2693.058594 2280.039062 Z M 2693.058594 2280.039062 "/>
<path fill-rule="nonzero" fill="rgb(0%, 63.476562%, 21.972656%)" fill-opacity="1" d="M 3150.539062 2280.039062 L 2762.011719 2280.039062 C 2681.761719 1602.429688 2334.609375 1028.820312 1853.519531 720.058594 C 2524.441406 904.429688 3041.390625 1517.691406 3150.539062 2280.039062 Z M 3150.539062 2280.039062 "/>
<path fill-rule="evenodd" fill="rgb(96.875%, 75.78125%, 0%)" fill-opacity="1" d="M 2870.828125 934.660156 C 2870.828125 975.449219 2854.628906 1014.570312 2825.78125 1043.421875 C 2796.941406 1072.261719 2757.820312 1088.46875 2717.019531 1088.46875 C 2632.078125 1088.46875 2563.21875 1019.609375 2563.21875 934.660156 C 2563.21875 849.710938 2632.078125 780.859375 2717.019531 780.859375 C 2757.820312 780.859375 2796.941406 797.058594 2825.78125 825.898438 C 2854.628906 854.75 2870.828125 893.871094 2870.828125 934.660156 Z M 2870.828125 934.660156 "/>
<path fill-rule="nonzero" fill="rgb(0%, 0%, 0%)" fill-opacity="1" d="M 1839.910156 2504.296875 L 1768.96875 2718.367188 L 1726.761719 2718.367188 L 1673.859375 2559.953125 L 1620.03125 2718.367188 L 1577.519531 2718.367188 L 1506.570312 2504.296875 L 1547.859375 2504.296875 L 1601.070312 2666.992188 L 1656.421875 2504.296875 L 1693.121094 2504.296875 L 1747.25 2667.90625 L 1801.988281 2504.296875 Z M 1839.910156 2504.296875 "/>
<path fill-rule="nonzero" fill="rgb(0%, 0%, 0%)" fill-opacity="1" d="M 2130.78125 2685.035156 L 2130.78125 2718.367188 L 1970.21875 2718.367188 L 1970.21875 2504.296875 L 2126.5 2504.296875 L 2126.5 2537.628906 L 2009.980469 2537.628906 L 2009.980469 2593.289062 L 2113.339844 2593.289062 L 2113.339844 2626.011719 L 2009.980469 2626.011719 L 2009.980469 2685.035156 Z M 2130.78125 2685.035156 "/>
<path fill-rule="nonzero" fill="rgb(0%, 0%, 0%)" fill-opacity="1" d="M 2273.019531 2504.296875 L 2312.769531 2504.296875 L 2312.769531 2684.726562 L 2424.699219 2684.726562 L 2424.699219 2718.367188 L 2273.019531 2718.367188 Z M 2273.019531 2504.296875 "/>
<path fill-rule="nonzero" fill="rgb(0%, 0%, 0%)" fill-opacity="1" d="M 2554.308594 2504.296875 L 2594.058594 2504.296875 L 2594.058594 2684.726562 L 2705.988281 2684.726562 L 2705.988281 2718.367188 L 2554.308594 2718.367188 Z M 2554.308594 2504.296875 "/>
<path fill-rule="nonzero" fill="rgb(0%, 0%, 0%)" fill-opacity="1" d="M 3025.808594 2504.296875 L 3025.808594 2718.367188 L 2993.089844 2718.367188 L 2875.050781 2573.410156 L 2875.050781 2718.367188 L 2835.589844 2718.367188 L 2835.589844 2504.296875 L 2868.320312 2504.296875 L 2986.359375 2649.253906 L 2986.359375 2504.296875 Z M 3025.808594 2504.296875 "/>
<path fill-rule="nonzero" fill="rgb(0%, 0%, 0%)" fill-opacity="1" d="M 3341.949219 2685.035156 L 3341.949219 2718.367188 L 3181.390625 2718.367188 L 3181.390625 2504.296875 L 3337.671875 2504.296875 L 3337.671875 2537.628906 L 3221.148438 2537.628906 L 3221.148438 2593.289062 L 3324.519531 2593.289062 L 3324.519531 2626.011719 L 3221.148438 2626.011719 L 3221.148438 2685.035156 Z M 3341.949219 2685.035156 "/>
<path fill-rule="nonzero" fill="rgb(0%, 0%, 0%)" fill-opacity="1" d="M 3550.550781 2721.425781 C 3534.03125 2721.425781 3518.03125 2719.082031 3502.53125 2714.390625 C 3487.25 2709.703125 3475.109375 2703.484375 3466.140625 2695.738281 L 3479.910156 2664.851562 C 3488.671875 2671.78125 3499.378906 2677.492188 3512.019531 2681.976562 C 3524.859375 2686.257812 3537.699219 2688.398438 3550.550781 2688.398438 C 3566.449219 2688.398438 3578.28125 2685.847656 3586.019531 2680.753906 C 3593.980469 2675.65625 3597.949219 2668.925781 3597.949219 2660.570312 C 3597.949219 2654.453125 3595.710938 2649.457031 3591.21875 2645.582031 C 3586.941406 2641.503906 3581.441406 2638.34375 3574.710938 2636.101562 C 3567.980469 2633.859375 3558.808594 2631.3125 3547.179688 2628.457031 C 3530.878906 2624.582031 3517.621094 2620.710938 3507.429688 2616.835938 C 3497.441406 2612.960938 3488.769531 2606.949219 3481.429688 2598.792969 C 3474.300781 2590.433594 3470.730469 2579.21875 3470.730469 2565.152344 C 3470.730469 2553.328125 3473.890625 2542.625 3480.210938 2533.042969 C 3486.730469 2523.253906 3496.421875 2515.507812 3509.269531 2509.800781 C 3522.308594 2504.089844 3538.21875 2501.238281 3556.96875 2501.238281 C 3570.019531 2501.238281 3582.859375 2502.867188 3595.5 2506.128906 C 3608.140625 2509.390625 3619.058594 2514.082031 3628.230469 2520.199219 L 3615.691406 2551.085938 C 3606.308594 2545.582031 3596.519531 2541.402344 3586.328125 2538.546875 C 3576.140625 2535.691406 3566.25 2534.265625 3556.660156 2534.265625 C 3540.96875 2534.265625 3529.238281 2536.914062 3521.5 2542.214844 C 3513.949219 2547.515625 3510.179688 2554.550781 3510.179688 2563.316406 C 3510.179688 2569.433594 3512.320312 2574.429688 3516.601562 2578.304688 C 3521.089844 2582.175781 3526.691406 2585.234375 3533.421875 2587.476562 C 3540.148438 2589.71875 3549.320312 2592.269531 3560.941406 2595.125 C 3576.851562 2598.792969 3589.898438 2602.667969 3600.089844 2606.746094 C 3610.28125 2610.617188 3618.949219 2616.632812 3626.089844 2624.789062 C 3633.429688 2632.941406 3637.101562 2643.953125 3637.101562 2657.816406 C 3637.101562 2669.640625 3633.839844 2680.34375 3627.308594 2689.925781 C 3620.988281 2699.507812 3611.308594 2707.15625 3598.261719 2712.863281 C 3585.210938 2718.570312 3569.308594 2721.425781 3550.550781 2721.425781 Z M 3550.550781 2721.425781 "/>
<path fill-rule="nonzero" fill="rgb(0%, 0%, 0%)" fill-opacity="1" d="M 3840.800781 2721.425781 C 3824.28125 2721.425781 3808.28125 2719.082031 3792.78125 2714.390625 C 3777.5 2709.703125 3765.359375 2703.484375 3756.390625 2695.738281 L 3770.160156 2664.851562 C 3778.921875 2671.78125 3789.628906 2677.492188 3802.269531 2681.976562 C 3815.109375 2686.257812 3827.949219 2688.398438 3840.800781 2688.398438 C 3856.699219 2688.398438 3868.53125 2685.847656 3876.269531 2680.753906 C 3884.230469 2675.65625 3888.199219 2668.925781 3888.199219 2660.570312 C 3888.199219 2654.453125 3885.960938 2649.457031 3881.46875 2645.582031 C 3877.191406 2641.503906 3871.691406 2638.34375 3864.960938 2636.101562 C 3858.230469 2633.859375 3849.058594 2631.3125 3837.429688 2628.457031 C 3821.128906 2624.582031 3807.871094 2620.710938 3797.679688 2616.835938 C 3787.691406 2612.960938 3779.019531 2606.949219 3771.679688 2598.792969 C 3764.550781 2590.433594 3760.980469 2579.21875 3760.980469 2565.152344 C 3760.980469 2553.328125 3764.140625 2542.625 3770.460938 2533.042969 C 3776.980469 2523.253906 3786.671875 2515.507812 3799.519531 2509.800781 C 3812.558594 2504.089844 3828.46875 2501.238281 3847.21875 2501.238281 C 3860.269531 2501.238281 3873.109375 2502.867188 3885.75 2506.128906 C 3898.390625 2509.390625 3909.300781 2514.082031 3918.480469 2520.199219 L 3905.941406 2551.085938 C 3896.558594 2545.582031 3886.769531 2541.402344 3876.578125 2538.546875 C 3866.390625 2535.691406 3856.5 2534.265625 3846.910156 2534.265625 C 3831.21875 2534.265625 3819.488281 2536.914062 3811.75 2542.214844 C 3804.199219 2547.515625 3800.429688 2554.550781 3800.429688 2563.316406 C 3800.429688 2569.433594 3802.570312 2574.429688 3806.851562 2578.304688 C 3811.339844 2582.175781 3816.941406 2585.234375 3823.671875 2587.476562 C 3830.398438 2589.71875 3839.570312 2592.269531 3851.191406 2595.125 C 3867.101562 2598.792969 3880.148438 2602.667969 3890.339844 2606.746094 C 3900.53125 2610.617188 3909.199219 2616.632812 3916.339844 2624.789062 C 3923.679688 2632.941406 3927.351562 2643.953125 3927.351562 2657.816406 C 3927.351562 2669.640625 3924.078125 2680.34375 3917.558594 2689.925781 C 3911.238281 2699.507812 3901.558594 2707.15625 3888.511719 2712.863281 C 3875.460938 2718.570312 3859.558594 2721.425781 3840.800781 2721.425781 Z M 3840.800781 2721.425781 "/>
</svg>
